<svg width="2149" height="1279" xmlns="http://www.w3.org/2000/svg" xmlns:xlink="http://www.w3.org/1999/xlink" xml:space="preserve" overflow="hidden"><defs><clipPath id="clip0"><rect x="1177" y="1291" width="2149" height="1279"/></clipPath><linearGradient x1="1502.39" y1="1680.94" x2="1296.41" y2="1644.62" gradientUnits="userSpaceOnUse" spreadMethod="reflect" id="fill1"><stop offset="0" stop-color="#B1DB99"/><stop offset="0.68" stop-color="#28A51E"/><stop offset="1" stop-color="#11700F"/></linearGradient><linearGradient x1="1552.33" y1="1751.72" x2="1466.47" y2="1515.84" gradientUnits="userSpaceOnUse" spreadMethod="reflect" id="fill2"><stop offset="0" stop-color="#B1DB99"/><stop offset="0.68" stop-color="#28A51E"/><stop offset="1" stop-color="#11700F"/></linearGradient><linearGradient x1="1601.99" y1="1786.2" x2="1644.81" y2="1543.36" gradientUnits="userSpaceOnUse" spreadMethod="reflect" id="fill3"><stop offset="0" stop-color="#B1DB99"/><stop offset="0.68" stop-color="#28A51E"/><stop offset="1" stop-color="#11700F"/></linearGradient><linearGradient x1="1632.17" y1="1844.4" x2="1792.63" y2="1653.16" gradientUnits="userSpaceOnUse" spreadMethod="reflect" id="fill4"><stop offset="0" stop-color="#B1DB99"/><stop offset="0.68" stop-color="#28A51E"/><stop offset="1" stop-color="#11700F"/></linearGradient><linearGradient x1="1620.62" y1="1901.01" x2="1858.18" y2="1814.55" gradientUnits="userSpaceOnUse" spreadMethod="reflect" id="fill5"><stop offset="0" stop-color="#B1DB99"/><stop offset="0.68" stop-color="#28A51E"/><stop offset="1" stop-color="#11700F"/></linearGradient><linearGradient x1="1578.76" y1="1947.25" x2="1823.04" y2="1990.32" gradientUnits="userSpaceOnUse" spreadMethod="reflect" id="fill6"><stop offset="0" stop-color="#B1DB99"/><stop offset="0.68" stop-color="#28A51E"/><stop offset="1" stop-color="#11700F"/></linearGradient><linearGradient x1="1520.22" y1="1967.74" x2="1714.58" y2="2130.82" gradientUnits="userSpaceOnUse" spreadMethod="reflect" id="fill7"><stop offset="0" stop-color="#B1DB99"/><stop offset="0.68" stop-color="#28A51E"/><stop offset="1" stop-color="#11700F"/></linearGradient><linearGradient x1="1463.87" y1="1951.06" x2="1549.93" y2="2187.5" gradientUnits="userSpaceOnUse" spreadMethod="reflect" id="fill8"><stop offset="0" stop-color="#B1DB99"/><stop offset="0.68" stop-color="#28A51E"/><stop offset="1" stop-color="#11700F"/></linearGradient><linearGradient x1="1417.21" y1="1916.43" x2="1374.59" y2="2158.14" gradientUnits="userSpaceOnUse" spreadMethod="reflect" id="fill9"><stop offset="0" stop-color="#B1DB99"/><stop offset="0.68" stop-color="#28A51E"/><stop offset="1" stop-color="#11700F"/></linearGradient><linearGradient x1="1397.63" y1="1861.16" x2="1237.17" y2="2052.4" gradientUnits="userSpaceOnUse" spreadMethod="reflect" id="fill10"><stop offset="0" stop-color="#B1DB99"/><stop offset="0.68" stop-color="#28A51E"/><stop offset="1" stop-color="#11700F"/></linearGradient><linearGradient x1="1415.18" y1="1807.55" x2="1177.62" y2="1894.01" gradientUnits="userSpaceOnUse" spreadMethod="reflect" id="fill11"><stop offset="0" stop-color="#B1DB99"/><stop offset="0.68" stop-color="#28A51E"/><stop offset="1" stop-color="#11700F"/></linearGradient><linearGradient x1="1438.9" y1="1739.28" x2="1202.9" y2="1739.28" gradientUnits="userSpaceOnUse" spreadMethod="reflect" id="fill12"><stop offset="0" stop-color="#B1DB99"/><stop offset="0.68" stop-color="#28A51E"/><stop offset="1" stop-color="#11700F"/></linearGradient></defs><g clip-path="url(#clip0)" transform="translate(-1177 -1291)"><text fill="#28A51E" font-family="Open Sans Light,Open Sans Light_MSFontService,sans-serif" font-weight="300" font-size="440" transform="matrix(1 0 0 1 1870.22 1838)">PRO</text><text fill="#302E2E" font-family="Open Sans Medium,Open Sans Medium_MSFontService,sans-serif" font-weight="500" font-size="440" transform="matrix(1 0 0 1 1870.22 2191)">HALO</text><path d="M1312.18 1576.82C1325.47 1564.13 1375.29 1592.33 1423.46 1639.81 1471.63 1687.28 1499.91 1736.05 1486.62 1748.74 1473.33 1761.43 1423.51 1733.23 1375.34 1685.75 1327.17 1638.28 1298.89 1589.51 1312.18 1576.82Z" fill="url(#fill1)" fill-rule="evenodd"/><path d="M1477.97 1517.08C1496.14 1512.53 1524.94 1561.1 1542.3 1625.56 1559.66 1690.01 1559 1745.95 1540.83 1750.49 1522.66 1755.03 1493.86 1706.46 1476.5 1642 1459.14 1577.55 1459.8 1521.62 1477.97 1517.08Z" fill="url(#fill2)" fill-rule="evenodd"/><path d="M1656.58 1548.11C1674.57 1552.95 1674.31 1609.11 1655.98 1673.54 1637.66 1737.97 1608.22 1786.28 1590.22 1781.45 1572.23 1776.61 1572.5 1720.45 1590.82 1656.02 1609.14 1591.59 1638.58 1543.28 1656.58 1548.11Z" fill="url(#fill3)" fill-rule="evenodd"/><path d="M1799.62 1665.13C1812.91 1678.28 1784.63 1726.4 1736.46 1772.6 1688.29 1818.8 1638.47 1845.59 1625.18 1832.43 1611.89 1819.28 1640.17 1771.16 1688.34 1724.96 1736.51 1678.76 1786.33 1651.97 1799.62 1665.13Z" fill="url(#fill4)" fill-rule="evenodd"/><path d="M1857.58 1827.89C1862.33 1845.72 1813.27 1873.57 1747.99 1890.06 1682.72 1906.57 1625.96 1905.51 1621.22 1887.67 1616.47 1869.84 1665.54 1842 1730.81 1825.49 1796.08 1808.98 1852.84 1810.06 1857.58 1827.89Z" fill="url(#fill5)" fill-rule="evenodd"/><path d="M1818.54 2000.39C1813.51 2018.08 1756.76 2018.27 1691.79 2000.81 1626.81 1983.36 1578.22 1954.87 1583.26 1937.18 1588.29 1919.48 1645.05 1919.3 1710.02 1936.75 1774.99 1954.2 1823.58 1982.69 1818.54 2000.39Z" fill="url(#fill6)" fill-rule="evenodd"/><path d="M1704.62 2135.72C1691.33 2148.48 1641.51 2120.12 1593.34 2072.37 1545.17 2024.64 1516.89 1975.59 1530.18 1962.84 1543.47 1950.08 1593.3 1978.44 1641.46 2026.17 1689.63 2073.91 1717.91 2122.97 1704.62 2135.72Z" fill="url(#fill7)" fill-rule="evenodd"/><path d="M1475.81 1952.08C1493.78 1947.51 1522.27 1996.28 1539.44 2061.01 1556.61 2125.75 1555.96 2181.92 1537.99 2186.49 1520.02 2191.04 1491.53 2142.27 1474.36 2077.54 1457.2 2012.8 1457.85 1956.63 1475.81 1952.08Z" fill="url(#fill8)" fill-rule="evenodd"/><path d="M1428.72 1921.11C1446.52 1925.93 1446.26 1981.85 1428.13 2046 1410.01 2110.17 1380.88 2158.27 1363.08 2153.45 1345.28 2148.63 1345.54 2092.72 1363.67 2028.56 1381.8 1964.41 1410.92 1916.3 1428.72 1921.11Z" fill="url(#fill9)" fill-rule="evenodd"/><path d="M1404.62 1873.13C1417.91 1886.28 1389.63 1934.41 1341.46 1980.6 1293.29 2026.8 1243.47 2053.58 1230.18 2040.43 1216.89 2027.27 1245.17 1979.15 1293.34 1932.96 1341.51 1886.76 1391.33 1859.98 1404.62 1873.13Z" fill="url(#fill10)" fill-rule="evenodd"/><path d="M1414.58 1820.89C1419.33 1838.72 1370.26 1866.56 1304.99 1883.07 1239.72 1899.58 1182.96 1898.5 1178.22 1880.67 1173.47 1862.83 1222.54 1835 1287.81 1818.49 1353.08 1801.98 1409.84 1803.06 1414.58 1820.89Z" fill="url(#fill11)" fill-rule="evenodd"/><path d="M1438.54 1771.23C1433.51 1789.12 1376.76 1789.32 1311.79 1771.67 1246.81 1754.02 1198.22 1725.21 1203.26 1707.32 1208.29 1689.44 1265.05 1689.24 1330.02 1706.89 1394.99 1724.54 1443.58 1753.35 1438.54 1771.23Z" fill="url(#fill12)" fill-rule="evenodd"/></g></svg>